<?xml version="1.0" encoding="utf-8"?>
<!-- Generator: Adobe Illustrator 26.0.2, SVG Export Plug-In . SVG Version: 6.00 Build 0)  -->
<svg version="1.1" id="Vrstva_1" xmlns="http://www.w3.org/2000/svg" xmlns:xlink="http://www.w3.org/1999/xlink" x="0px" y="0px"
	 viewBox="0 0 346.41 222.91" style="enable-background:new 0 0 346.41 222.91;" xml:space="preserve">
<style type="text/css">
	.st0{fill:#101728;}
</style>
<g>
	<path class="st0" d="M109.42,38.62l-4.69,26.51c1.11,3.04,1.69,6.59,1.69,10.71v24.32l21.18,3.75V75.83
		c0-13.63-3.65-24.19-10.95-31.66C114.52,42,112.11,40.16,109.42,38.62z"/>
	<path class="st0" d="M62.61,92.4V75.83c0-7.34,1.76-12.96,5.29-16.87c3.53-3.91,9.07-5.86,16.61-5.86c0.26,0,0.5,0.02,0.75,0.03
		l3.54-20.03c-1.4-0.08-2.82-0.13-4.29-0.13c-14.05,0-24.74,3.76-32.08,11.26c-7.34,7.51-11,18.05-11,31.61v12.83L62.61,92.4z"/>
	<path class="st0" d="M66.47,159.39c-2.56-3.76-3.86-8.73-3.86-14.95v-30.45l-21.18-3.75v34.2c0,13.49,3.65,24.01,10.95,31.56
		c2.8,2.89,6.1,5.22,9.9,7.01L66.47,159.39z"/>
	<path class="st0" d="M106.42,121.74v22.7c0,7.34-1.78,12.96-5.35,16.87c-3.21,3.52-8.01,5.44-14.38,5.79l-3.57,20.19
		c0.46,0.01,0.92,0.02,1.39,0.02c14.05,0,24.74-3.75,32.08-11.26c7.33-7.51,11-18.04,11-31.61v-18.96L106.42,121.74z"/>
</g>
<g>
	<path class="st0" d="M168.36,80.09V66.99c0-0.45,0.25-0.69,0.69-0.69h0.47c0.37,0,0.64,0.12,0.85,0.44l8.24,11.62V66.99
		c0-0.45,0.25-0.69,0.69-0.69h0.23c0.45,0,0.69,0.25,0.69,0.69v13.09c0,0.45-0.25,0.69-0.69,0.69h-0.41c-0.37,0-0.64-0.12-0.85-0.44
		l-8.3-11.7v11.44c0,0.45-0.25,0.69-0.69,0.69h-0.23C168.6,80.78,168.36,80.53,168.36,80.09z"/>
	<path class="st0" d="M182.81,75.06c0-4.02,2.56-5.94,5.38-5.94c1.95,0,3.67,0.95,4.39,2.86v-1.95c0-0.45,0.25-0.69,0.69-0.69h0.18
		c0.45,0,0.69,0.25,0.69,0.69v10.03c0,0.45-0.25,0.69-0.69,0.69h-0.18c-0.45,0-0.69-0.25-0.69-0.69v-1.87
		c-0.71,1.88-2.44,2.85-4.37,2.85C185.38,81.04,182.81,79.11,182.81,75.06z M192.62,75.06c0-2.8-1.66-4.55-4.14-4.55
		c-2.46,0-4.1,1.73-4.1,4.55c0,2.85,1.63,4.58,4.14,4.58C190.97,79.64,192.62,77.89,192.62,75.06z"/>
	<path class="st0" d="M196.57,75.06c0-4.02,2.56-5.94,5.38-5.94c1.95,0,3.69,0.95,4.39,2.86v-5.67c0-0.45,0.25-0.69,0.69-0.69h0.18
		c0.45,0,0.69,0.25,0.69,0.69v13.75c0,0.45-0.25,0.69-0.69,0.69h-0.18c-0.45,0-0.69-0.25-0.69-0.69v-1.87
		c-0.71,1.88-2.44,2.85-4.37,2.85C199.14,81.04,196.57,79.11,196.57,75.06z M206.38,75.06c0-2.8-1.64-4.55-4.14-4.55
		c-2.46,0-4.1,1.73-4.1,4.55c0,2.85,1.63,4.58,4.14,4.58C204.75,79.64,206.38,77.89,206.38,75.06z"/>
	<path class="st0" d="M210.33,75.06c0-4.02,2.56-5.94,5.38-5.94c1.95,0,3.67,0.95,4.39,2.86v-1.95c0-0.45,0.25-0.69,0.69-0.69h0.18
		c0.45,0,0.69,0.25,0.69,0.69v10.03c0,0.45-0.25,0.69-0.69,0.69h-0.18c-0.45,0-0.69-0.25-0.69-0.69v-1.87
		c-0.71,1.88-2.44,2.85-4.37,2.85C212.9,81.04,210.33,79.11,210.33,75.06z M220.14,75.06c0-2.8-1.66-4.55-4.14-4.55
		c-2.46,0-4.1,1.73-4.1,4.55c0,2.85,1.63,4.58,4.14,4.58C218.5,79.64,220.14,77.89,220.14,75.06z"/>
	<path class="st0" d="M224.13,75.06c0-3.47,2.33-5.94,5.58-5.94c2.31,0,3.94,0.92,4.87,2.64c0.23,0.44,0.07,0.74-0.37,0.86
		l-0.15,0.04c-0.41,0.12-0.66-0.04-0.9-0.4c-0.73-1.15-1.87-1.76-3.4-1.76c-2.39,0-4.06,1.86-4.06,4.55c0,2.68,1.67,4.54,4.06,4.54
		c1.52,0,2.65-0.62,3.38-1.75c0.24-0.35,0.51-0.53,0.89-0.4l0.12,0.04c0.48,0.16,0.64,0.4,0.44,0.8c-0.92,1.73-2.59,2.7-4.88,2.7
		C226.5,81,224.13,78.56,224.13,75.06z M227.67,64.96l2.04,2.02l2.04-2.02c0.27-0.27,0.41-0.35,0.85-0.35
		c0.62,0,0.74,0.33,0.29,0.85l-2,2.08c-0.23,0.27-0.51,0.38-0.86,0.38h-0.62c-0.35,0-0.62-0.12-0.85-0.38l-2-2.08
		c-0.44-0.51-0.35-0.85,0.29-0.85C227.22,64.6,227.38,64.68,227.67,64.96z"/>
	<path class="st0" d="M247.37,74.65v5.43c0,0.45-0.25,0.69-0.69,0.69h-0.18c-0.45,0-0.69-0.25-0.69-0.69v-5.34
		c0-2.83-1.11-4.19-3.57-4.19c-2.49,0-3.53,1.66-3.53,4.53v4.99c0,0.45-0.25,0.69-0.69,0.69h-0.18c-0.45,0-0.69-0.25-0.69-0.69
		V70.03c0-0.45,0.25-0.69,0.69-0.69H238c0.45,0,0.69,0.25,0.69,0.69v1.76c0.51-1.51,1.83-2.65,3.91-2.65
		C245.84,69.15,247.37,71.03,247.37,74.65z"/>
	<path class="st0" d="M250.01,80.09V70.03c0-0.45,0.24-0.69,0.68-0.69h0.19c0.43,0,0.68,0.25,0.68,0.69v10.05
		c0,0.45-0.24,0.69-0.68,0.69h-0.19C250.25,80.78,250.01,80.53,250.01,80.09z M250.54,67.1l1-2.05c0.16-0.34,0.41-0.51,0.79-0.51
		h0.19c0.43,0,0.56,0.35,0.3,0.83l-1.09,2.03c-0.2,0.36-0.5,0.51-0.9,0.51C250.44,67.91,250.32,67.57,250.54,67.1z"/>
	<path class="st0" d="M261.22,80.78c-0.45,0-0.69-0.25-0.69-0.69v-9.47h-0.91c-0.45,0-0.69-0.22-0.69-0.65
		c0-0.41,0.25-0.63,0.69-0.63h0.91v-0.5c0-2.35,1.23-3.52,3.67-3.52c0.35,0,0.74,0.02,1.09,0.07c0.48,0.05,0.66,0.31,0.58,0.71
		c-0.08,0.45-0.27,0.62-0.72,0.58c-0.25-0.02-0.45-0.04-0.71-0.04c-1.55,0-2.33,0.73-2.33,2.23v0.46h2.68
		c0.45,0,0.69,0.22,0.69,0.63s-0.24,0.65-0.69,0.65h-2.68v9.47c0,0.45-0.25,0.69-0.69,0.69L261.22,80.78L261.22,80.78z"/>
	<path class="st0" d="M266.18,75.06c0-4.12,2.81-5.94,5.67-5.94c2.87,0,5.7,1.82,5.7,5.94c0,4.16-2.81,5.98-5.67,5.98
		C268.98,81.04,266.18,79.22,266.18,75.06z M275.97,75.06c0-2.8-1.65-4.55-4.13-4.55s-4.1,1.73-4.1,4.55c0,2.85,1.62,4.58,4.13,4.58
		C274.34,79.64,275.97,77.89,275.97,75.06z"/>
	<path class="st0" d="M290.14,74.65v5.43c0,0.45-0.25,0.69-0.69,0.69h-0.18c-0.45,0-0.69-0.25-0.69-0.69v-5.34
		c0-2.83-1.11-4.19-3.57-4.19c-2.49,0-3.53,1.66-3.53,4.53v4.99c0,0.45-0.25,0.69-0.69,0.69h-0.18c-0.45,0-0.69-0.25-0.69-0.69
		V70.03c0-0.45,0.25-0.69,0.69-0.69h0.18c0.45,0,0.69,0.25,0.69,0.69v1.76c0.51-1.51,1.83-2.65,3.91-2.65
		C288.6,69.15,290.14,71.03,290.14,74.65z"/>
	<path class="st0" d="M292.27,75.06c0-4.02,2.56-5.94,5.38-5.94c1.95,0,3.69,0.95,4.39,2.86v-5.67c0-0.45,0.25-0.69,0.69-0.69h0.18
		c0.45,0,0.69,0.25,0.69,0.69v13.75c0,0.45-0.25,0.69-0.69,0.69h-0.18c-0.45,0-0.69-0.25-0.69-0.69v-1.87
		c-0.71,1.88-2.44,2.85-4.37,2.85C294.84,81.04,292.27,79.11,292.27,75.06z M302.08,75.06c0-2.8-1.64-4.55-4.14-4.55
		c-2.46,0-4.1,1.73-4.1,4.55c0,2.85,1.63,4.58,4.14,4.58C300.45,79.64,302.08,77.89,302.08,75.06z"/>
	<path class="st0" d="M169.46,118.38V97.12c0-1.55,0.85-2.4,2.4-2.4h0.89c1.55,0,2.4,0.85,2.4,2.4v8.37l7.99-9.27
		c0.87-0.99,1.73-1.5,3-1.5h1.35c2.15,0,2.93,1.22,1.41,2.92l-8.49,9.41l8.93,10.83c1.43,1.75,0.76,2.9-1.23,2.9h-1.58
		c-1.29,0-2.2-0.54-3-1.54l-8.38-10.62v9.77c0,1.55-0.85,2.4-2.4,2.4h-0.89C170.31,120.78,169.46,119.93,169.46,118.38z"/>
	<path class="st0" d="M193.36,118.38V97.12c0-1.55,0.85-2.4,2.4-2.4h0.9c1.55,0,2.4,0.85,2.4,2.4v18.61h7.25
		c1.55,0,2.4,0.85,2.4,2.4v0.26c0,1.55-0.85,2.4-2.4,2.4h-10.55C194.21,120.78,193.36,119.93,193.36,118.38z"/>
	<path class="st0" d="M233.53,120.78h-1c-1.38,0-2.25-0.64-2.73-1.95l-0.94-2.58h-11.26l-0.92,2.58c-0.47,1.31-1.36,1.95-2.74,1.95
		h-0.96c-1.76,0-2.54-1.13-1.89-2.76l8.51-21.4c0.52-1.3,1.4-1.9,2.77-1.9h1.7c1.37,0,2.25,0.6,2.77,1.9l8.55,21.39
		C236.04,119.65,235.27,120.78,233.53,120.78z M223.22,100.92l-4.08,11.14h8.18L223.22,100.92z"/>
	<path class="st0" d="M238.68,118.38V97.12c0-1.55,0.85-2.4,2.4-2.4h5.04c10.55,0,14.65,4.47,14.65,13.04
		c0,8.45-4.1,13.02-14.65,13.02h-5.04C239.53,120.78,238.68,119.93,238.68,118.38z M255.03,107.72c0-5.39-2.12-7.98-8.73-7.98h-1.94
		v15.99h1.98C252.91,115.72,255.03,113.14,255.03,107.72z"/>
	<path class="st0" d="M265.07,118.38V97.12c0-1.55,0.85-2.4,2.4-2.4h1.28c1.31,0,2.15,0.47,2.89,1.61l10.2,15.53V97.12
		c0-1.55,0.85-2.4,2.4-2.4h0.89c1.55,0,2.4,0.85,2.4,2.4v21.27c0,1.55-0.85,2.4-2.4,2.4h-1.23c-1.31,0-2.18-0.54-2.89-1.61
		l-10.23-15.59v14.79c0,1.55-0.85,2.4-2.4,2.4h-0.9C265.92,120.78,265.07,119.93,265.07,118.38z"/>
	<path class="st0" d="M292.88,118.38V97.12c0-1.55,0.85-2.4,2.4-2.4h12.45c1.55,0,2.4,0.85,2.4,2.4v0.28c0,1.55-0.85,2.4-2.4,2.4
		h-9.16v5.62h8.51c1.55,0,2.4,0.79,2.4,2.21v0.04c0,1.43-0.85,2.19-2.4,2.19h-8.51v5.88h9.16c1.55,0,2.4,0.85,2.4,2.4v0.26
		c0,1.55-0.85,2.4-2.4,2.4h-12.45C293.73,120.78,292.88,119.93,292.88,118.38z M300.68,89.97l1.03-2.35
		c0.5-1.15,1.35-1.53,2.65-1.53h0.53c1.37,0,1.89,1.01,0.93,2.55l-1.47,2.36c-0.71,1.05-1.45,1.44-2.75,1.44
		C300.38,92.43,299.98,91.57,300.68,89.97z"/>
	<path class="st0" d="M169.46,158.38v-21.27c0-1.55,0.85-2.4,2.4-2.4h1.28c1.31,0,2.15,0.47,2.89,1.61l10.2,15.53v-14.74
		c0-1.55,0.85-2.4,2.4-2.4h0.89c1.55,0,2.4,0.85,2.4,2.4v21.27c0,1.55-0.85,2.4-2.4,2.4h-1.23c-1.31,0-2.18-0.54-2.89-1.61
		l-10.23-15.59v14.79c0,1.55-0.85,2.4-2.4,2.4h-0.9C170.31,160.78,169.46,159.93,169.46,158.38z"/>
	<path class="st0" d="M196.98,148.69v-11.57c0-1.55,0.85-2.4,2.4-2.4h0.9c1.55,0,2.4,0.85,2.4,2.4v11.53c0,5.24,1.62,7.37,5.34,7.37
		c3.73,0,5.36-2.14,5.36-7.34v-11.57c0-1.55,0.85-2.4,2.4-2.4h0.92c1.55,0,2.4,0.85,2.4,2.4v11.59c0,8.43-3.71,12.38-11.07,12.38
		S196.98,157.19,196.98,148.69z"/>
	<path class="st0" d="M224.17,158.38v-21.27c0-1.55,0.85-2.4,2.4-2.4h0.9c1.55,0,2.4,0.85,2.4,2.4v18.61h7.25
		c1.55,0,2.4,0.85,2.4,2.4v0.26c0,1.55-0.85,2.4-2.4,2.4h-10.55C225.02,160.78,224.17,159.93,224.17,158.38z"/>
	<path class="st0" d="M245.96,158.46v-4.79l-8.61-16.1c-0.89-1.66-0.2-2.84,1.64-2.84h1.22c1.33,0,2.17,0.58,2.79,1.79l5.79,11.29
		l5.85-11.29c0.62-1.21,1.46-1.79,2.79-1.79h1.21c1.86,0,2.6,1.22,1.71,2.85l-8.72,16.1v4.72c0,1.55-0.85,2.4-2.4,2.4h-0.89
		C246.81,160.78,245.96,159.94,245.96,158.46z"/>
</g>
</svg>
