<?xml version="1.0" encoding="utf-8"?>
<!-- Generator: Adobe Illustrator 26.0.2, SVG Export Plug-In . SVG Version: 6.00 Build 0)  -->
<svg version="1.1" id="Vrstva_1" xmlns="http://www.w3.org/2000/svg" xmlns:xlink="http://www.w3.org/1999/xlink" x="0px" y="0px"
	 viewBox="0 0 308.22 305.83" style="enable-background:new 0 0 308.22 305.83;" xml:space="preserve">
<style type="text/css">
	.st0{fill:#101728;}
</style>
<g>
	<path class="st0" d="M182.53,33.92l-4.69,26.51c1.11,3.04,1.69,6.59,1.69,10.71v24.32l21.18,3.75V71.13
		c0-13.63-3.65-24.19-10.95-31.66C187.63,37.3,185.22,35.46,182.53,33.92z"/>
	<path class="st0" d="M135.72,87.7V71.13c0-7.34,1.76-12.96,5.29-16.87c3.53-3.91,9.07-5.86,16.61-5.86c0.26,0,0.5,0.02,0.75,0.03
		l3.54-20.03c-1.4-0.08-2.82-0.13-4.29-0.13c-14.05,0-24.74,3.76-32.08,11.26c-7.34,7.51-11,18.05-11,31.61v12.83L135.72,87.7z"/>
	<path class="st0" d="M139.58,154.69c-2.56-3.76-3.86-8.73-3.86-14.95v-30.45l-21.18-3.75v34.2c0,13.49,3.65,24.01,10.95,31.56
		c2.8,2.89,6.1,5.22,9.9,7.01L139.58,154.69z"/>
	<path class="st0" d="M179.53,117.04v22.7c0,7.34-1.78,12.96-5.35,16.87c-3.21,3.52-8.01,5.44-14.38,5.79l-3.57,20.19
		c0.46,0.01,0.92,0.02,1.39,0.02c14.05,0,24.74-3.75,32.08-11.26c7.33-7.51,11-18.04,11-31.61v-18.96L179.53,117.04z"/>
</g>
<g>
	<path class="st0" d="M57.04,234.83v-13.18c0-0.45,0.25-0.7,0.7-0.7h0.47c0.38,0,0.65,0.13,0.86,0.44l8.3,11.7v-11.44
		c0-0.45,0.25-0.7,0.7-0.7h0.23c0.45,0,0.7,0.25,0.7,0.7v13.18c0,0.45-0.25,0.7-0.7,0.7h-0.41c-0.38,0-0.65-0.12-0.86-0.44
		l-8.36-11.78v11.52c0,0.45-0.25,0.7-0.7,0.7h-0.23C57.29,235.53,57.04,235.28,57.04,234.83z"/>
	<path class="st0" d="M76.64,229.77c0-4.05,2.58-5.98,5.42-5.98c1.96,0,3.69,0.96,4.42,2.88v-1.96c0-0.45,0.25-0.7,0.7-0.7h0.19
		c0.45,0,0.7,0.25,0.7,0.7v10.1c0,0.45-0.25,0.7-0.7,0.7h-0.19c-0.45,0-0.7-0.25-0.7-0.7v-1.89c-0.71,1.9-2.45,2.87-4.39,2.87
		C79.22,235.79,76.64,233.85,76.64,229.77z M86.51,229.77c0-2.82-1.68-4.58-4.17-4.58c-2.48,0-4.12,1.75-4.12,4.58
		c0,2.87,1.65,4.61,4.17,4.61C84.86,234.38,86.51,232.61,86.51,229.77z"/>
	<path class="st0" d="M95.54,229.77c0-4.05,2.58-5.98,5.42-5.98c1.96,0,3.71,0.96,4.42,2.88v-5.71c0-0.45,0.25-0.7,0.7-0.7h0.19
		c0.45,0,0.7,0.25,0.7,0.7v13.85c0,0.45-0.25,0.7-0.7,0.7h-0.19c-0.45,0-0.7-0.25-0.7-0.7v-1.89c-0.71,1.9-2.45,2.87-4.39,2.87
		C98.12,235.79,95.54,233.85,95.54,229.77z M105.41,229.77c0-2.82-1.66-4.58-4.17-4.58c-2.48,0-4.12,1.75-4.12,4.58
		c0,2.87,1.65,4.61,4.17,4.61C103.78,234.38,105.41,232.61,105.41,229.77z"/>
	<path class="st0" d="M114.44,229.77c0-4.05,2.58-5.98,5.42-5.98c1.96,0,3.69,0.96,4.42,2.88v-1.96c0-0.45,0.25-0.7,0.7-0.7h0.19
		c0.45,0,0.7,0.25,0.7,0.7v10.1c0,0.45-0.25,0.7-0.7,0.7h-0.19c-0.45,0-0.7-0.25-0.7-0.7v-1.89c-0.71,1.9-2.45,2.87-4.39,2.87
		C117.02,235.79,114.44,233.85,114.44,229.77z M124.31,229.77c0-2.82-1.68-4.58-4.17-4.58c-2.48,0-4.12,1.75-4.12,4.58
		c0,2.87,1.65,4.61,4.17,4.61C122.66,234.38,124.31,232.61,124.31,229.77z"/>
	<path class="st0" d="M133.37,229.77c0-3.49,2.35-5.98,5.62-5.98c2.32,0,3.96,0.92,4.91,2.65c0.23,0.44,0.07,0.75-0.37,0.87
		l-0.15,0.04c-0.41,0.12-0.67-0.04-0.91-0.4c-0.74-1.16-1.88-1.77-3.43-1.77c-2.4,0-4.09,1.88-4.09,4.58c0,2.7,1.68,4.57,4.09,4.57
		c1.53,0,2.67-0.62,3.41-1.76c0.24-0.35,0.51-0.54,0.9-0.4l0.12,0.04c0.48,0.16,0.65,0.4,0.44,0.81c-0.92,1.74-2.61,2.72-4.92,2.72
		C135.75,235.75,133.37,233.29,133.37,229.77z M136.93,219.59l2.05,2.04l2.05-2.04c0.27-0.27,0.41-0.36,0.86-0.36
		c0.62,0,0.75,0.34,0.29,0.86l-2.02,2.1c-0.23,0.27-0.51,0.39-0.87,0.39h-0.62c-0.36,0-0.62-0.12-0.85-0.39l-2.02-2.1
		c-0.45-0.51-0.35-0.86,0.29-0.86C136.48,219.24,136.65,219.31,136.93,219.59z"/>
	<path class="st0" d="M161.81,229.36v5.47c0,0.45-0.25,0.7-0.7,0.7h-0.19c-0.45,0-0.7-0.25-0.7-0.7v-5.37c0-2.84-1.12-4.22-3.6-4.22
		c-2.51,0-3.56,1.67-3.56,4.57v5.03c0,0.45-0.25,0.7-0.7,0.7h-0.19c-0.45,0-0.7-0.25-0.7-0.7V224.7c0-0.45,0.25-0.7,0.7-0.7h0.19
		c0.45,0,0.7,0.25,0.7,0.7v1.78c0.51-1.52,1.84-2.67,3.93-2.67C160.27,223.81,161.81,225.71,161.81,229.36z"/>
	<path class="st0" d="M169.51,234.83v-10.12c0-0.45,0.24-0.7,0.68-0.7h0.19c0.44,0,0.68,0.25,0.68,0.7v10.12
		c0,0.45-0.24,0.7-0.68,0.7h-0.19C169.75,235.53,169.51,235.28,169.51,234.83z M170.33,222.57c-0.39,0-0.51-0.34-0.29-0.82
		l1.01-2.06c0.16-0.34,0.42-0.51,0.79-0.51h0.19c0.44,0,0.56,0.35,0.3,0.83l-1.1,2.05C171.04,222.41,170.74,222.57,170.33,222.57
		L170.33,222.57z"/>
	<path class="st0" d="M190.88,235.53c-0.45,0-0.7-0.25-0.7-0.7v-9.54h-0.92c-0.46,0-0.7-0.23-0.7-0.65c0-0.42,0.25-0.63,0.7-0.63
		h0.92v-0.5c0-2.37,1.24-3.55,3.7-3.55c0.35,0,0.74,0.02,1.1,0.07c0.48,0.05,0.67,0.31,0.59,0.72c-0.08,0.45-0.27,0.63-0.73,0.59
		c-0.25-0.02-0.46-0.04-0.72-0.04c-1.56,0-2.34,0.74-2.34,2.25v0.47h2.7c0.45,0,0.7,0.22,0.7,0.63s-0.24,0.65-0.7,0.65h-2.7v9.54
		c0,0.45-0.25,0.7-0.7,0.7L190.88,235.53L190.88,235.53z"/>
	<path class="st0" d="M200.91,229.77c0-4.15,2.82-5.98,5.71-5.98s5.74,1.83,5.74,5.98c0,4.19-2.83,6.02-5.71,6.02
		C203.73,235.79,200.91,233.96,200.91,229.77z M210.77,229.77c0-2.82-1.66-4.58-4.15-4.58c-2.49,0-4.12,1.75-4.12,4.58
		c0,2.87,1.63,4.61,4.15,4.61C209.13,234.38,210.77,232.61,210.77,229.77z"/>
	<path class="st0" d="M230.08,229.36v5.47c0,0.45-0.25,0.7-0.7,0.7h-0.19c-0.45,0-0.7-0.25-0.7-0.7v-5.37c0-2.84-1.12-4.22-3.6-4.22
		c-2.51,0-3.56,1.67-3.56,4.57v5.03c0,0.45-0.25,0.7-0.7,0.7h-0.19c-0.45,0-0.7-0.25-0.7-0.7V224.7c0-0.45,0.25-0.7,0.7-0.7h0.19
		c0.45,0,0.7,0.25,0.7,0.7v1.78c0.51-1.52,1.84-2.67,3.93-2.67C228.53,223.81,230.08,225.71,230.08,229.36z"/>
	<path class="st0" d="M237.27,229.77c0-4.05,2.57-5.98,5.42-5.98c1.96,0,3.71,0.96,4.42,2.88v-5.71c0-0.45,0.25-0.7,0.7-0.7h0.19
		c0.45,0,0.7,0.25,0.7,0.7v13.85c0,0.45-0.25,0.7-0.7,0.7h-0.19c-0.45,0-0.7-0.25-0.7-0.7v-1.89c-0.71,1.9-2.45,2.87-4.39,2.87
		C239.85,235.79,237.27,233.85,237.27,229.77z M247.14,229.77c0-2.82-1.65-4.58-4.16-4.58c-2.48,0-4.12,1.75-4.12,4.58
		c0,2.87,1.64,4.61,4.16,4.61C245.5,234.38,247.14,232.61,247.14,229.77z"/>
	<path class="st0" d="M37.41,271.49v-18.08c0-1.31,0.72-2.04,2.04-2.04h0.75c1.31,0,2.04,0.72,2.04,2.04v7.11l6.79-7.88
		c0.74-0.84,1.47-1.27,2.55-1.27h1.15c1.82,0,2.49,1.04,1.2,2.49l-7.22,8l7.59,9.2c1.22,1.49,0.64,2.47-1.05,2.47h-1.34
		c-1.1,0-1.87-0.46-2.55-1.31l-7.13-9.03v8.3c0,1.31-0.72,2.04-2.04,2.04h-0.75C38.13,273.53,37.41,272.8,37.41,271.49z"/>
	<path class="st0" d="M60.07,271.49v-18.08c0-1.31,0.72-2.04,2.04-2.04h0.76c1.31,0,2.04,0.72,2.04,2.04v15.81h6.17
		c1.31,0,2.04,0.72,2.04,2.04v0.22c0,1.31-0.72,2.04-2.04,2.04H62.1C60.79,273.53,60.07,272.8,60.07,271.49z"/>
	<path class="st0" d="M96.55,273.53H95.7c-1.17,0-1.92-0.54-2.32-1.66l-0.8-2.19h-9.57l-0.79,2.19c-0.4,1.11-1.16,1.66-2.33,1.66
		h-0.81c-1.5,0-2.16-0.96-1.61-2.35l7.23-18.19c0.44-1.1,1.19-1.62,2.35-1.62h1.45c1.16,0,1.91,0.51,2.35,1.62l7.26,18.18
		C98.68,272.56,98.02,273.53,96.55,273.53z M87.78,256.64l-3.47,9.47h6.95L87.78,256.64z"/>
	<path class="st0" d="M103.26,271.49v-18.08c0-1.31,0.72-2.04,2.04-2.04h4.28c8.96,0,12.45,3.8,12.45,11.09
		c0,7.18-3.49,11.06-12.45,11.06h-4.28C103.99,273.53,103.26,272.8,103.26,271.49z M117.16,262.42c0-4.58-1.8-6.79-7.42-6.79h-1.64
		v13.59h1.69C115.36,269.23,117.16,267.03,117.16,262.42z"/>
	<path class="st0" d="M128.04,271.49v-18.07c0-1.31,0.72-2.04,2.04-2.04h1.09c1.11,0,1.83,0.4,2.46,1.37l8.67,13.2v-12.52
		c0-1.31,0.72-2.04,2.04-2.04h0.75c1.31,0,2.04,0.72,2.04,2.04v18.07c0,1.31-0.72,2.04-2.04,2.04h-1.05c-1.11,0-1.86-0.46-2.46-1.37
		l-8.7-13.25v12.58c0,1.31-0.72,2.04-2.04,2.04h-0.76C128.76,273.53,128.04,272.8,128.04,271.49z"/>
	<path class="st0" d="M154.02,271.49v-18.08c0-1.31,0.72-2.04,2.04-2.04h10.58c1.31,0,2.04,0.72,2.04,2.04v0.23
		c0,1.31-0.72,2.04-2.04,2.04h-7.79v4.78h7.24c1.31,0,2.04,0.67,2.04,1.88v0.03c0,1.21-0.72,1.86-2.04,1.86h-7.24v4.99h7.79
		c1.31,0,2.04,0.72,2.04,2.04v0.22c0,1.31-0.72,2.04-2.04,2.04h-10.58C154.75,273.53,154.02,272.8,154.02,271.49z M160.65,247.33
		l0.88-2c0.43-0.97,1.15-1.3,2.25-1.3h0.45c1.16,0,1.61,0.86,0.79,2.17l-1.25,2c-0.6,0.9-1.23,1.22-2.33,1.22
		C160.39,249.43,160.05,248.7,160.65,247.33z"/>
	<path class="st0" d="M185.5,271.49v-18.07c0-1.31,0.72-2.04,2.04-2.04h1.09c1.11,0,1.83,0.4,2.46,1.37l8.67,13.2v-12.52
		c0-1.31,0.72-2.04,2.04-2.04h0.75c1.31,0,2.04,0.72,2.04,2.04v18.07c0,1.31-0.72,2.04-2.04,2.04h-1.05c-1.11,0-1.86-0.46-2.46-1.37
		l-8.7-13.25v12.58c0,1.31-0.72,2.04-2.04,2.04h-0.76C186.22,273.53,185.5,272.8,185.5,271.49z"/>
	<path class="st0" d="M211.23,263.25v-9.83c0-1.31,0.72-2.04,2.04-2.04h0.76c1.31,0,2.04,0.72,2.04,2.04v9.8
		c0,4.45,1.38,6.27,4.54,6.27c3.17,0,4.55-1.82,4.55-6.24v-9.83c0-1.31,0.72-2.04,2.04-2.04h0.78c1.31,0,2.04,0.72,2.04,2.04v9.85
		c0,7.17-3.15,10.52-9.41,10.52C214.35,273.79,211.23,270.48,211.23,263.25z"/>
	<path class="st0" d="M236.69,271.49v-18.08c0-1.31,0.72-2.04,2.04-2.04h0.76c1.31,0,2.04,0.72,2.04,2.04v15.81h6.17
		c1.31,0,2.04,0.72,2.04,2.04v0.22c0,1.31-0.72,2.04-2.04,2.04h-8.97C237.41,273.53,236.69,272.8,236.69,271.49z"/>
	<path class="st0" d="M257.58,271.55v-4.07l-7.32-13.69c-0.76-1.41-0.17-2.42,1.39-2.42h1.04c1.13,0,1.84,0.49,2.38,1.52l4.92,9.59
		l4.97-9.59c0.53-1.03,1.24-1.52,2.38-1.52h1.03c1.58,0,2.21,1.03,1.46,2.42l-7.41,13.68v4.01c0,1.31-0.72,2.04-2.04,2.04h-0.75
		C258.3,273.53,257.58,272.81,257.58,271.55z"/>
</g>
</svg>
