<?xml version="1.0" encoding="UTF-8"?><svg id="Vrstva_1" xmlns="http://www.w3.org/2000/svg" viewBox="0 0 333.7 191.53"><defs><style>.cls-1{fill:#101829;}</style></defs><g><path class="cls-1" d="M84.36,7.02l-5.82,32.89c1.38,3.77,2.09,8.18,2.09,13.28v30.18l26.28,4.65V53.2c0-16.92-4.53-30.01-13.59-39.29-2.63-2.69-5.62-4.98-8.96-6.89Z"/><path class="cls-1" d="M26.28,73.76v-20.56c0-9.1,2.19-16.08,6.57-20.93,4.38-4.85,11.25-7.28,20.61-7.28,.32,0,.62,.03,.93,.03L58.78,.16c-1.73-.1-3.5-.16-5.33-.16C36.02,0,22.76,4.66,13.65,13.98,4.55,23.3,0,36.37,0,53.2v15.92l26.28,4.65Z"/><path class="cls-1" d="M31.06,156.89c-3.18-4.66-4.78-10.83-4.78-18.55v-37.79L0,95.9v42.43c0,16.74,4.53,29.8,13.59,39.16,3.47,3.59,7.57,6.48,12.29,8.69l5.18-29.3Z"/><path class="cls-1" d="M80.63,110.17v28.17c0,9.1-2.21,16.08-6.63,20.93-3.98,4.36-9.94,6.75-17.84,7.19l-4.43,25.05c.57,.01,1.14,.03,1.73,.03,17.43,0,30.7-4.66,39.8-13.98,9.1-9.32,13.65-22.39,13.65-39.22v-23.52l-26.28-4.65Z"/></g><g><path class="cls-1" d="M173.15,41.29c.3,0,.53,.09,.71,.27s.26,.42,.26,.69v16.25c0,.33-.1,.6-.31,.8-.21,.2-.46,.3-.76,.3-.16,0-.31-.03-.47-.09-.16-.06-.28-.14-.37-.25l-11.2-14.82,.52-.31v14.5c0,.28-.09,.51-.28,.69-.18,.18-.42,.27-.72,.27-.28,0-.51-.09-.68-.27-.18-.18-.26-.41-.26-.69v-16.31c0-.31,.1-.57,.3-.76,.2-.19,.44-.29,.72-.29,.16,0,.32,.03,.49,.09s.29,.15,.38,.27l11.05,14.61-.34,.42v-14.42c0-.28,.09-.51,.27-.69s.41-.27,.69-.27Z"/><path class="cls-1" d="M189.71,45.95c.3,0,.54,.1,.75,.3,.2,.2,.3,.45,.3,.75v11.54c0,.3-.1,.55-.3,.76-.2,.21-.45,.31-.75,.31-.31,0-.57-.1-.76-.31s-.29-.46-.29-.76v-2.49l.5-.05c0,.38-.13,.8-.39,1.26-.26,.45-.62,.88-1.07,1.27-.45,.39-.99,.72-1.61,.97-.62,.25-1.29,.38-2,.38-1.19,0-2.25-.31-3.19-.93s-1.69-1.46-2.24-2.53c-.55-1.06-.83-2.28-.83-3.64s.28-2.6,.83-3.65,1.29-1.89,2.24-2.49,1.99-.9,3.14-.9c.75,0,1.45,.12,2.09,.37,.65,.25,1.21,.58,1.69,1,.48,.42,.85,.88,1.12,1.39s.41,1.01,.41,1.52l-.68-.16v-2.85c0-.3,.1-.55,.29-.75s.44-.3,.76-.3Zm-5.39,11.99c.87,0,1.64-.23,2.32-.68s1.19-1.07,1.57-1.85c.38-.78,.56-1.65,.56-2.63s-.19-1.83-.56-2.6c-.38-.78-.9-1.39-1.57-1.83-.67-.44-1.44-.67-2.32-.67s-1.62,.22-2.29,.65c-.67,.44-1.2,1.04-1.58,1.81-.38,.77-.58,1.65-.58,2.64s.19,1.85,.56,2.63c.38,.78,.9,1.39,1.57,1.85s1.44,.68,2.32,.68Z"/><path class="cls-1" d="M206.06,40.25c.3,0,.54,.1,.75,.3,.2,.2,.3,.45,.3,.75v17.25c0,.3-.1,.55-.3,.76-.2,.21-.45,.31-.75,.31-.31,0-.57-.1-.76-.31s-.29-.46-.29-.76v-2.49l.5-.18c0,.42-.13,.86-.39,1.32-.26,.46-.62,.89-1.07,1.29-.45,.4-.99,.73-1.61,1-.62,.26-1.29,.39-2,.39-1.17,0-2.23-.31-3.18-.92s-1.7-1.45-2.25-2.51-.83-2.28-.83-3.64,.28-2.6,.83-3.66,1.29-1.9,2.24-2.5,1.99-.9,3.14-.9c.73,0,1.42,.12,2.07,.37,.64,.25,1.21,.58,1.69,1,.48,.42,.86,.88,1.14,1.39s.42,1.01,.42,1.52l-.68-.16v-8.56c0-.3,.1-.55,.29-.75,.19-.2,.44-.3,.76-.3Zm-5.39,17.69c.87,0,1.64-.22,2.32-.67s1.19-1.06,1.57-1.83c.38-.78,.56-1.65,.56-2.63s-.19-1.87-.56-2.64-.9-1.37-1.57-1.82c-.67-.44-1.44-.67-2.32-.67s-1.62,.22-2.29,.67c-.67,.45-1.2,1.05-1.58,1.82s-.58,1.65-.58,2.64,.19,1.83,.58,2.6c.38,.78,.91,1.39,1.58,1.85,.67,.45,1.43,.68,2.29,.68Z"/><path class="cls-1" d="M222.42,45.95c.3,0,.54,.1,.75,.3,.2,.2,.3,.45,.3,.75v11.54c0,.3-.1,.55-.3,.76-.2,.21-.45,.31-.75,.31-.31,0-.57-.1-.76-.31s-.29-.46-.29-.76v-2.49l.5-.05c0,.38-.13,.8-.39,1.26-.26,.45-.62,.88-1.07,1.27-.45,.39-.99,.72-1.61,.97-.62,.25-1.29,.38-2,.38-1.19,0-2.25-.31-3.19-.93s-1.69-1.46-2.24-2.53c-.55-1.06-.83-2.28-.83-3.64s.28-2.6,.83-3.65,1.29-1.89,2.24-2.49,1.99-.9,3.14-.9c.75,0,1.45,.12,2.09,.37,.65,.25,1.21,.58,1.69,1,.48,.42,.85,.88,1.12,1.39s.41,1.01,.41,1.52l-.68-.16v-2.85c0-.3,.1-.55,.29-.75s.44-.3,.76-.3Zm-5.39,11.99c.87,0,1.64-.23,2.32-.68s1.19-1.07,1.57-1.85c.38-.78,.56-1.65,.56-2.63s-.19-1.83-.56-2.6c-.38-.78-.9-1.39-1.57-1.83-.67-.44-1.44-.67-2.32-.67s-1.62,.22-2.29,.65c-.67,.44-1.2,1.04-1.58,1.81-.38,.77-.58,1.65-.58,2.64s.19,1.85,.56,2.63c.38,.78,.9,1.39,1.57,1.85s1.44,.68,2.32,.68Z"/><path class="cls-1" d="M233.62,45.74c.89,0,1.69,.1,2.41,.29s1.28,.45,1.7,.78c.42,.33,.63,.71,.63,1.13,0,.23-.08,.44-.24,.65-.16,.21-.37,.31-.63,.31-.24,0-.44-.04-.59-.13-.15-.09-.29-.2-.42-.34s-.31-.26-.54-.37c-.21-.12-.51-.22-.92-.29-.4-.07-.8-.1-1.2-.1-.96,0-1.8,.23-2.53,.68-.73,.45-1.3,1.06-1.72,1.83-.42,.77-.63,1.64-.63,2.62s.2,1.85,.6,2.62c.4,.77,.96,1.38,1.67,1.83s1.54,.68,2.49,.68c.61,0,1.1-.05,1.46-.16,.37-.1,.67-.23,.92-.37,.31-.18,.55-.35,.72-.52,.17-.17,.39-.26,.67-.26,.3,0,.53,.1,.7,.29,.17,.19,.25,.43,.25,.71,0,.31-.22,.65-.65,.99s-1.03,.65-1.77,.89-1.58,.37-2.53,.37c-1.33,0-2.49-.31-3.48-.93s-1.77-1.47-2.32-2.54c-.55-1.07-.83-2.27-.83-3.6s.28-2.52,.85-3.59c.57-1.06,1.36-1.91,2.37-2.54,1.01-.63,2.19-.94,3.53-.94Zm-.39-1.28c-.47,0-.84-.18-1.1-.55l-1.65-1.83c-.16-.19-.24-.38-.24-.58,0-.16,.06-.29,.18-.39,.12-.1,.3-.16,.52-.16,.21,0,.49,.15,.84,.44l2.04,1.65-.5,.03,1.99-1.7c.16-.14,.3-.24,.44-.31,.14-.07,.31-.1,.52-.1,.16,0,.29,.05,.41,.14,.11,.1,.17,.21,.17,.35,0,.09-.02,.18-.07,.27s-.12,.21-.22,.33l-1.62,1.86c-.28,.37-.65,.55-1.12,.55h-.6Z"/><path class="cls-1" d="M248.14,45.74c1.19,0,2.12,.24,2.8,.73s1.17,1.14,1.45,1.96c.29,.82,.43,1.74,.43,2.75v7.36c0,.3-.1,.55-.3,.76-.2,.21-.45,.31-.75,.31s-.55-.1-.75-.31c-.2-.21-.3-.46-.3-.76v-7.3c0-.66-.1-1.26-.3-1.79-.2-.53-.53-.96-.99-1.28-.46-.32-1.09-.48-1.9-.48-.73,0-1.41,.16-2.02,.48-.61,.32-1.1,.75-1.46,1.28-.37,.53-.55,1.13-.55,1.79v7.3c0,.3-.1,.55-.3,.76-.2,.21-.45,.31-.75,.31s-.54-.1-.74-.31c-.2-.21-.3-.46-.3-.76v-11.41c0-.3,.1-.55,.3-.75,.2-.2,.45-.3,.74-.3,.31,0,.57,.1,.76,.3,.19,.2,.29,.45,.29,.75v1.86l-.52,.58c.09-.45,.29-.91,.6-1.38,.31-.46,.71-.88,1.18-1.24,.47-.37,1-.66,1.57-.88,.58-.22,1.18-.33,1.8-.33Z"/><path class="cls-1" d="M258.98,58.54c0,.3-.1,.55-.3,.76-.2,.21-.45,.31-.74,.31-.31,0-.57-.1-.76-.31-.19-.21-.29-.46-.29-.76v-11.62c0-.3,.1-.54,.3-.75,.2-.2,.45-.3,.75-.3s.54,.1,.74,.3c.2,.2,.3,.45,.3,.75v11.62Zm-1.2-13.53c-.12,0-.25-.05-.38-.16s-.2-.24-.2-.42c0-.12,.05-.26,.16-.42l1.57-2.57c.1-.17,.24-.34,.42-.5,.17-.16,.38-.24,.63-.24,.35,0,.61,.09,.79,.27,.17,.18,.26,.42,.26,.72-.02,.14-.05,.27-.1,.39-.05,.12-.13,.25-.24,.39l-1.99,2.09c-.12,.14-.27,.25-.43,.31-.17,.07-.33,.1-.49,.1Z"/><path class="cls-1" d="M276.34,46.29c.28,0,.52,.09,.71,.27,.19,.18,.29,.41,.29,.69s-.09,.51-.29,.69c-.19,.18-.43,.27-.71,.27h-6.57c-.28,0-.51-.1-.71-.29-.19-.19-.29-.42-.29-.68,0-.3,.09-.53,.29-.71,.19-.17,.43-.26,.71-.26h6.57Zm-.73-5.99c.3,0,.61,.03,.93,.1,.32,.07,.6,.19,.84,.37,.24,.18,.35,.41,.35,.71,0,.28-.09,.51-.26,.69-.18,.18-.39,.27-.63,.27-.16,0-.38-.05-.65-.14-.28-.09-.57-.14-.86-.14-.4,0-.73,.09-.98,.26-.25,.17-.44,.41-.55,.69-.12,.29-.17,.61-.17,.96v14.47c0,.3-.1,.55-.3,.76-.2,.21-.45,.31-.75,.31-.31,0-.57-.1-.76-.31s-.29-.46-.29-.76v-14.45c0-1.17,.36-2.09,1.09-2.77,.72-.68,1.72-1.02,3-1.02Z"/><path class="cls-1" d="M292.58,52.81c0,1.36-.3,2.57-.9,3.64-.6,1.06-1.41,1.9-2.43,2.51s-2.17,.92-3.44,.92-2.43-.31-3.45-.92c-1.03-.61-1.85-1.45-2.45-2.51-.6-1.06-.9-2.28-.9-3.64s.3-2.57,.9-3.64c.6-1.06,1.42-1.9,2.45-2.51,1.03-.61,2.18-.92,3.45-.92s2.42,.31,3.44,.92c1.02,.61,1.83,1.45,2.43,2.51,.6,1.06,.9,2.28,.9,3.64Zm-2.1,0c0-1.01-.2-1.9-.61-2.67-.41-.77-.97-1.37-1.68-1.81-.71-.44-1.5-.65-2.4-.65s-1.69,.22-2.4,.65c-.71,.44-1.27,1.04-1.69,1.81-.42,.77-.63,1.66-.63,2.67s.21,1.88,.63,2.64,.98,1.37,1.69,1.82c.71,.44,1.51,.67,2.4,.67s1.69-.22,2.4-.67c.71-.44,1.27-1.05,1.68-1.82,.41-.77,.61-1.65,.61-2.64Z"/><path class="cls-1" d="M302.69,45.74c1.19,0,2.12,.24,2.8,.73s1.17,1.14,1.45,1.96c.29,.82,.43,1.74,.43,2.75v7.36c0,.3-.1,.55-.3,.76-.2,.21-.45,.31-.75,.31s-.55-.1-.75-.31c-.2-.21-.3-.46-.3-.76v-7.3c0-.66-.1-1.26-.3-1.79-.2-.53-.53-.96-.99-1.28-.46-.32-1.09-.48-1.9-.48-.73,0-1.41,.16-2.02,.48-.61,.32-1.1,.75-1.46,1.28-.37,.53-.55,1.13-.55,1.79v7.3c0,.3-.1,.55-.3,.76-.2,.21-.45,.31-.75,.31s-.54-.1-.74-.31c-.2-.21-.3-.46-.3-.76v-11.41c0-.3,.1-.55,.3-.75,.2-.2,.45-.3,.74-.3,.31,0,.57,.1,.76,.3,.19,.2,.29,.45,.29,.75v1.86l-.52,.58c.09-.45,.29-.91,.6-1.38,.31-.46,.71-.88,1.18-1.24,.47-.37,1-.66,1.57-.88,.58-.22,1.18-.33,1.8-.33Z"/><path class="cls-1" d="M322.66,40.25c.3,0,.54,.1,.75,.3,.2,.2,.3,.45,.3,.75v17.25c0,.3-.1,.55-.3,.76-.2,.21-.45,.31-.75,.31-.31,0-.57-.1-.76-.31s-.29-.46-.29-.76v-2.49l.5-.18c0,.42-.13,.86-.39,1.32-.26,.46-.62,.89-1.07,1.29-.45,.4-.99,.73-1.61,1-.62,.26-1.29,.39-2,.39-1.17,0-2.23-.31-3.18-.92s-1.7-1.45-2.25-2.51-.83-2.28-.83-3.64,.28-2.6,.83-3.66,1.29-1.9,2.24-2.5,1.99-.9,3.14-.9c.73,0,1.42,.12,2.07,.37,.64,.25,1.21,.58,1.69,1,.48,.42,.86,.88,1.14,1.39s.42,1.01,.42,1.52l-.68-.16v-8.56c0-.3,.1-.55,.29-.75,.19-.2,.44-.3,.76-.3Zm-5.39,17.69c.87,0,1.64-.22,2.32-.67s1.19-1.06,1.57-1.83c.38-.78,.56-1.65,.56-2.63s-.19-1.87-.56-2.64-.9-1.37-1.57-1.82c-.67-.44-1.44-.67-2.32-.67s-1.62,.22-2.29,.67c-.67,.45-1.2,1.05-1.58,1.82s-.58,1.65-.58,2.64,.19,1.83,.58,2.6c.38,.78,.91,1.39,1.58,1.85,.67,.45,1.43,.68,2.29,.68Z"/></g><path class="cls-1" d="M162.84,110.07c1,0,1.81-.31,2.4-.92,.59-.61,.89-1.38,.89-2.28v-7.28l4.09-3.92,10.01,13.18c.6,.81,1.4,1.22,2.38,1.22,.89,0,1.71-.3,2.42-.9,.73-.61,1.11-1.42,1.11-2.4,0-.76-.24-1.47-.73-2.13l-10.32-13.65,10.06-9.62c.63-.63,.94-1.32,.94-2.07,0-.7-.27-1.39-.8-2.06-.55-.69-1.26-1.04-2.12-1.04-.9,0-1.76,.4-2.54,1.18l-14.52,14.3v-12.05c0-.9-.29-1.66-.87-2.27-.58-.61-1.36-.93-2.33-.93s-1.77,.31-2.4,.92c-.63,.61-.95,1.38-.95,2.28v27.23c0,.9,.3,1.67,.89,2.28,.6,.61,1.39,.92,2.35,.92Z"/><path class="cls-1" d="M210.1,109.2c.62-.58,.93-1.32,.93-2.19s-.31-1.66-.93-2.24c-.61-.58-1.38-.87-2.27-.87h-11.97v-24.27c0-.91-.33-1.68-.97-2.29-.64-.61-1.39-.91-2.23-.91-.96,0-1.77,.31-2.4,.92-.63,.61-.95,1.38-.95,2.28v27.23c0,.9,.31,1.67,.92,2.28s1.38,.92,2.28,.92h15.31c.9,0,1.66-.29,2.27-.87Z"/><path class="cls-1" d="M236.49,108.17c.27,.65,.66,1.17,1.16,1.55,.51,.39,1.09,.58,1.73,.58,.74,0,1.42-.28,2.03-.84,.62-.56,.93-1.33,.93-2.27,0-.38-.09-.8-.26-1.26l-11.59-27.6c-.24-.66-.64-1.18-1.18-1.55-.54-.36-1.13-.55-1.72-.55h-.01c-.68-.07-1.31,.09-1.89,.48-.57,.38-1,.92-1.28,1.61l-11.74,28.21c-.1,.35-.16,.68-.16,.99,0,.77,.23,1.43,.69,1.96,.47,.54,1.19,.82,2.13,.82,.6,0,1.17-.19,1.68-.56,.51-.37,.89-.89,1.12-1.53l2.36-5.55h13.62l2.36,5.5Zm-4.97-11.57h-8.43l4.2-9.87,4.23,9.87Z"/><path class="cls-1" d="M269.86,81.39c-1.23-1.56-2.77-2.78-4.57-3.65-1.8-.87-3.87-1.3-6.17-1.3h-11.26c-.9,0-1.67,.31-2.28,.92-.61,.61-.92,1.38-.92,2.28v27.23c0,.9,.31,1.67,.92,2.28s1.38,.92,2.28,.92h11.26c3.1,0,5.76-.77,7.89-2.27,2.13-1.5,3.77-3.55,4.89-6.1,1.11-2.53,1.68-5.37,1.68-8.45,0-2.28-.31-4.46-.94-6.48-.62-2.02-1.56-3.83-2.79-5.38Zm-3.06,11.86c0,1.94-.29,3.75-.85,5.38-.56,1.62-1.45,2.93-2.65,3.91-1.19,.97-2.75,1.46-4.64,1.46h-7.45v-21.49h7.45c1.41,0,2.64,.29,3.66,.85,1.02,.57,1.87,1.35,2.53,2.32,.67,.99,1.17,2.14,1.49,3.43,.32,1.3,.48,2.69,.48,4.14Z"/><path class="cls-1" d="M302.95,76.44c-.88,0-1.59,.29-2.12,.86-.53,.56-.8,1.27-.8,2.11v19.33l-16.55-21.11c-.26-.41-.66-.71-1.2-.91-1.47-.54-2.82-.29-3.76,.64-.61,.61-.92,1.38-.92,2.28v27.47c0,.83,.27,1.54,.79,2.11,.53,.57,1.23,.86,2.08,.86s1.6-.29,2.14-.85c.55-.56,.82-1.27,.82-2.11v-19.17l16.72,21.23c.26,.3,.63,.53,1.11,.69,.45,.15,.91,.23,1.35,.23,.9,0,1.67-.31,2.28-.92,.61-.61,.92-1.38,.92-2.28v-27.47c0-.84-.27-1.55-.79-2.11-.53-.57-1.23-.86-2.08-.86Z"/><g><path class="cls-1" d="M330.5,104h-12.44v-8.06h10.32c.9,0,1.66-.27,2.27-.81,.62-.55,.93-1.27,.93-2.15s-.31-1.66-.93-2.24c-.61-.58-1.38-.87-2.27-.87h-10.32v-7.35h12.44c.89,0,1.66-.27,2.27-.81,.62-.55,.94-1.28,.94-2.15s-.31-1.66-.93-2.24c-.61-.58-1.38-.87-2.27-.87h-15.78c-.9,0-1.67,.31-2.28,.92-.61,.61-.92,1.38-.92,2.28v27.23c0,.9,.31,1.67,.92,2.28s1.38,.92,2.28,.92h15.78c.9,0,1.66-.28,2.27-.84,.62-.56,.93-1.3,.93-2.17,0-.81-.31-1.53-.92-2.14s-1.38-.92-2.28-.92Z"/><path class="cls-1" d="M323.85,74.23c.17,0,.36-.02,.57-.05,.24-.04,.47-.14,.67-.27l4.7-2.49c.62-.31,1.09-.72,1.42-1.22,.33-.51,.5-1.04,.5-1.57,0-.83-.33-1.49-.98-1.96-1.1-.79-2.19-.86-3.19-.33-.41,.21-.8,.47-1.17,.77l-4.06,3.59c-.24,.24-.43,.48-.55,.71-.14,.25-.2,.52-.2,.79,0,.6,.22,1.09,.65,1.47,.42,.37,.98,.55,1.65,.55Z"/></g><path class="cls-1" d="M184.94,126.17c-.88,0-1.59,.29-2.12,.86-.53,.56-.8,1.27-.8,2.11v19.33l-16.55-21.11c-.26-.41-.66-.71-1.2-.91-1.46-.54-2.82-.29-3.76,.64-.61,.61-.92,1.38-.92,2.28v27.47c0,.83,.27,1.54,.79,2.11,.53,.57,1.23,.86,2.08,.86s1.6-.29,2.14-.85c.55-.56,.82-1.27,.82-2.11v-19.17l16.72,21.23c.26,.3,.63,.53,1.11,.69,.45,.15,.91,.23,1.35,.23,.9,0,1.67-.31,2.28-.92,.61-.61,.92-1.38,.92-2.28v-27.47c0-.84-.27-1.55-.79-2.11-.53-.57-1.23-.86-2.08-.86Z"/><path class="cls-1" d="M217.09,126.12c-.91,0-1.64,.32-2.18,.94-.52,.61-.78,1.37-.78,2.26v17.06c0,1.5-.35,2.81-1.03,3.9-.69,1.1-1.6,1.95-2.71,2.55-2.13,1.16-4.81,1.25-7.01,0-1.06-.6-1.92-1.45-2.57-2.54-.64-1.09-.97-2.41-.97-3.91v-17.06c0-.9-.33-1.67-.97-2.29-.64-.61-1.38-.91-2.18-.91-.96,0-1.77,.31-2.4,.92-.63,.61-.95,1.38-.95,2.28v17.06c0,2.65,.58,5.04,1.72,7.08,1.14,2.05,2.73,3.68,4.74,4.84,2,1.15,4.35,1.74,6.97,1.74s4.96-.59,6.95-1.74c1.99-1.16,3.58-2.78,4.72-4.83s1.71-4.43,1.71-7.08v-17.06c0-.9-.28-1.66-.84-2.27-.56-.62-1.31-.93-2.22-.93Z"/><path class="cls-1" d="M244.23,153.64h-11.97v-24.27c0-.91-.33-1.68-.97-2.29-.64-.61-1.39-.91-2.23-.91-.96,0-1.77,.31-2.4,.92-.63,.61-.95,1.38-.95,2.28v27.23c0,.9,.31,1.67,.92,2.28s1.38,.92,2.28,.92h15.31c.9,0,1.66-.29,2.27-.87,.62-.58,.93-1.32,.93-2.19s-.31-1.66-.93-2.24c-.61-.58-1.38-.87-2.27-.87Z"/><path class="cls-1" d="M267.8,126.03c-1.02,0-1.9,.52-2.63,1.56l-7.5,10.98-8.03-11.08c-.72-.96-1.58-1.45-2.57-1.45-.76,0-1.52,.29-2.23,.87-.74,.6-1.11,1.38-1.11,2.33,0,.35,.07,.73,.21,1.14,.14,.41,.38,.84,.71,1.27l9.73,12.94v12.03c0,.9,.31,1.67,.92,2.28,.61,.61,1.36,.92,2.23,.92,.81,0,1.53-.31,2.14-.92s.92-1.38,.92-2.28v-11.38l9.79-14.02c.21-.31,.36-.64,.45-.97,.08-.33,.13-.65,.13-.95,0-.94-.33-1.72-.97-2.33-.64-.61-1.38-.91-2.18-.91Z"/></svg>